<?xml version="1.0" encoding="UTF-8"?>
<svg width="32px" height="32px" viewBox="0 0 32 32" version="1.1" xmlns="http://www.w3.org/2000/svg" xmlns:xlink="http://www.w3.org/1999/xlink">
    <title>icon</title>
    <g id="icon" stroke="none" stroke-width="1" fill="none" fill-rule="evenodd">
        <rect id="background" fill="#FFFFFF" x="2" y="2" width="28" height="28" rx="6"></rect>
        <path d="M21,4 L24,4 C26.209139,4 28,5.790861 28,8 L28,24 C28,26.209139 26.209139,28 24,28 L21,28 L21,28 L21,4 Z" id="modifier" fill="#C63A33"></path>
        <polygon id="element" fill="#3277A8" points="13 4 19 4 19 28 13 28"></polygon>
        <path d="M8,4 L11,4 L11,4 L11,28 L8,28 C5.790861,28 4,26.209139 4,24 L4,8 C4,5.790861 5.790861,4 8,4 Z" id="block" fill="#52A832"></path>
    </g>
</svg>